<svg xmlns="http://www.w3.org/2000/svg" width="1323.9916mm" height="200mm" viewBox="0 0 1323.9916 200"><defs><clipPath id="a" clipPathUnits="userSpaceOnUse"><path d="M0 595.28h841.89V0H0Z"/></clipPath><clipPath id="b" clipPathUnits="userSpaceOnUse"><path d="M215.367 328.612s-.914-.234-.99-.76c-.069-.47.328-.723.898-.682 8.449 1.034 12.416-1.017 13.615-3.354 1.007-1.963.867-4.69-2.431-7.302 0 0-4.08-3.097-3.417-7.312.677-4.32 7.239-8.789 14.437-5.246 7.181 3.534 8.168 12.795 5.304 17.877-2.862 5.082-8.908 7.778-17.097 7.973-.229.005-.468.008-.714.008-3.078 0-7.345-.42-9.605-1.202"/></clipPath><clipPath id="d" clipPathUnits="userSpaceOnUse"><path d="M206.894 331.545c-22.768-3.643-35.626-16.843-32.424-31.24 1.498-6.736 9.181-12.564 17.671-14.349.757-.16 11.065-2.97 21.476.189 4.973 1.504 8.649 3.796 10.605 6.916 1.701 2.776 1.681 5.307.664 6.322-1.023 1.027-4.304-.393-3.816 4.346.416 4.055-3.871 4.658-5.779 4.727-.332.007-.646.005-.935-.004-.978-.037-2.312.001-2.312.001-7.722.281-13.822 3.311-15.273 8.275-1.458 4.986 1.237 10.338 10.795 13.43 0 0 1.04.416.5 1.152-.162.218-.502.267-.775.267a2.47 2.47 0 0 1-.397-.032"/></clipPath><clipPath id="f" clipPathUnits="userSpaceOnUse"><path d="M0 595.28h841.89V0H0Z"/></clipPath><radialGradient id="c" cx="0" cy="0" r="1" fx="0" fy="0" gradientTransform="matrix(27.27552 0 0 -27.27552 226.53 298.09)" gradientUnits="userSpaceOnUse" spreadMethod="pad"><stop offset="0" style="stop-opacity:1;stop-color:#8ec31f"/><stop offset="0.3501852" style="stop-opacity:1;stop-color:#8ec31f"/><stop offset="1" style="stop-opacity:1;stop-color:#2f9935"/></radialGradient><radialGradient id="e" cx="0" cy="0" r="1" fx="0" fy="0" gradientTransform="matrix(52.49467 0 0 -52.49467 222.585 283.373)" gradientUnits="userSpaceOnUse" spreadMethod="pad"><stop offset="0" style="stop-opacity:1;stop-color:#22aee6"/><stop offset="0.37851141" style="stop-opacity:1;stop-color:#22aee6"/><stop offset="1" style="stop-opacity:1;stop-color:#046eb8"/></radialGradient></defs><g clip-path="url(#a)" transform="matrix(2.66224 0 0 -2.66224 -463.19 882.739)"><path d="M0 0h-3.778v8.488H-7.83V-6.943a84.979 84.979 0 0 0-8.644-.465h-3.048v3.897h7.678V.078h-7.678v3.549h8.217v3.666H-23.42v-18.288h6.907c3.009 0 5.904.153 8.683.501v-1.699h4.052v8.49H0v-8.49h4.091V8.488H0Z" style="fill:#046eb8;fill-opacity:1;fill-rule:nonzero;stroke:none" transform="translate(463.268 283.288)"/><path d="M0 0h18.21v-7.873h4.052v11.54H0Z" style="fill:#046eb8;fill-opacity:1;fill-rule:nonzero;stroke:none" transform="translate(445.097 265.541)"/><path d="M0 0h9.338v3.778H-9.221v9.918H9.067v3.78h-22.456V0h9.221v-7.138h-12.924v-3.782h30.018v3.782H0Z" style="fill:#046eb8;fill-opacity:1;fill-rule:nonzero;stroke:none" transform="translate(489.305 272.525)"/><path d="M529.462 258.094h4.17v33.683h-4.17zM547.361 281.397h14.271v-5.864h-14.271zm9.219-9.609h9.221v18.868h-4.168v-5.477h-14.272v5.477h-4.17v-18.868h9.225v-6.4h-12.928v-3.782h30.018v3.782H556.58Z" style="fill:#046eb8;fill-opacity:1;fill-rule:nonzero;stroke:none"/><path d="M0 0c0-2.314-.31-4.821-.927-7.483h4.088C3.819-4.861 4.166-2.236 4.166.385v5.519h-22.764V2.2H0Z" style="fill:#046eb8;fill-opacity:1;fill-rule:nonzero;stroke:none" transform="translate(628.834 284.985)"/><path d="M0 0h-5.102v10.958h-4.169v-33.683h4.169v18.788H0Z" style="fill:#046eb8;fill-opacity:1;fill-rule:nonzero;stroke:none" transform="translate(671.307 280.818)"/><path d="m0 0 1.219-3.631C7.791-2.277 11.65.4 13.834 3.23 16.019.4 19.877-2.277 26.449-3.631L27.667 0c-4.786 1.088-10.231 3.504-11.126 8.842h8.828v3.705H2.296V8.842h8.83C10.231 3.504 4.786 1.088 0 0" style="fill:#046eb8;fill-opacity:1;fill-rule:nonzero;stroke:none" transform="translate(406.113 277.958)"/><path d="M0 0h12.924v-11.034h4.168V0h12.926v3.783H0Z" style="fill:#046eb8;fill-opacity:1;fill-rule:nonzero;stroke:none" transform="translate(404.938 268.51)"/><path d="M0 0v5.68h-4.395V0c-.005-3.451-.595-10.941-8.988-16.707l2.279-2.949c4.615 3.051 7.322 6.644 8.907 9.99 1.586-3.346 4.293-6.939 8.906-9.99l2.278 2.949C.596-10.941.005-3.451 0 0" style="fill:#046eb8;fill-opacity:1;fill-rule:nonzero;stroke:none" transform="translate(517.861 285.093)"/><path d="M0 0c.002.104.002.206.002.303v5.682H-4.39V.306c-.006-3.452-.595-10.942-8.987-16.707l2.278-2.95c4.614 3.051 7.322 6.643 8.907 9.991 1.587-3.348 4.294-6.94 8.906-9.991l2.278 2.95C.83-10.794.051-3.569 0 0" style="fill:#046eb8;fill-opacity:1;fill-rule:nonzero;stroke:none" transform="translate(651.75 284.787)"/><path d="m0 0 1.273-3.305C7.514-1.901 11.105.314 13.106 2.574c2.001-2.26 5.595-4.475 11.833-5.879L26.215 0c-6.273 1.545-10.059 4.02-10.71 7.182h9.139v3.664H1.57V7.182h9.138C10.059 4.02 6.272 1.545 0 0" style="fill:#046eb8;fill-opacity:1;fill-rule:nonzero;stroke:none" transform="translate(575.027 280.044)"/><path d="M0 0c-2.847 0-5.154 2.219-5.154 4.955C-5.154 7.692-2.847 9.91 0 9.91c2.845 0 5.154-2.218 5.154-4.955C5.154 2.219 2.845 0 0 0m-15.01 10.865h8.191c-1.546-1.551-2.498-3.623-2.498-5.91 0-4.801 4.171-8.693 9.315-8.693 5.146 0 9.317 3.892 9.317 8.693 0 2.287-.952 4.359-2.497 5.91h8.19v3.744H-15.01Z" style="fill:#046eb8;fill-opacity:1;fill-rule:nonzero;stroke:none" transform="translate(588.136 260.19)"/><path d="M0 0c-2.847 0-5.154 2.219-5.154 4.955C-5.154 7.692-2.847 9.91 0 9.91c2.846 0 5.154-2.218 5.154-4.955C5.154 2.219 2.846 0 0 0m-.294 21.943h-4.192v-7.334H-15.01v-3.744h8.191c-1.545-1.551-2.498-3.623-2.498-5.91 0-4.801 4.171-8.693 9.316-8.693 5.146 0 9.316 3.892 9.316 8.693 0 2.287-.952 4.359-2.496 5.91h8.189v3.744H-.294Z" style="fill:#046eb8;fill-opacity:1;fill-rule:nonzero;stroke:none" transform="translate(621.776 260.19)"/></g><g clip-path="url(#b)" transform="matrix(2.66224 0 0 -2.66224 -463.19 882.739)"><path d="M215.367 328.612s-.914-.234-.99-.76c-.069-.47.328-.723.898-.682 8.449 1.034 12.416-1.017 13.615-3.354 1.007-1.963.867-4.69-2.431-7.302 0 0-4.08-3.097-3.417-7.312.677-4.32 7.239-8.789 14.437-5.246 7.181 3.534 8.168 12.795 5.304 17.877-2.862 5.082-8.908 7.778-17.097 7.973-.229.005-.468.008-.714.008-3.078 0-7.345-.42-9.605-1.202" style="fill:url(#c);stroke:none"/></g><g clip-path="url(#d)" transform="matrix(2.66224 0 0 -2.66224 -463.19 882.739)"><path d="M206.894 331.545c-22.768-3.643-35.626-16.843-32.424-31.24 1.498-6.736 9.181-12.564 17.671-14.349.757-.16 11.065-2.97 21.476.189 4.973 1.504 8.649 3.796 10.605 6.916 1.701 2.776 1.681 5.307.664 6.322-1.023 1.027-4.304-.393-3.816 4.346.416 4.055-3.871 4.658-5.779 4.727-.332.007-.646.005-.935-.004-.978-.037-2.312.001-2.312.001-7.722.281-13.822 3.311-15.273 8.275-1.458 4.986 1.237 10.338 10.795 13.43 0 0 1.04.416.5 1.152-.162.218-.502.267-.775.267a2.47 2.47 0 0 1-.397-.032" style="fill:url(#e);stroke:none"/></g><g clip-path="url(#f)" transform="matrix(2.66224 0 0 -2.66224 -463.19 882.739)"><path d="M0 0c0-7.789 9.023-14.126 20.113-14.126C31.2-14.126 40.22-7.789 40.22 0v31.406c0 .989-.853 1.793-1.9 1.793h-7.864V.273c0-4.164-4.738-7.681-10.343-7.681-5.611 0-10.35 3.517-10.35 7.681l-.009 31.133c0 .989-.853 1.793-1.903 1.793H-4.353V28.27h1.927c.49-.013 2.421-.209 2.421-2.489z" style="fill:#046eb8;fill-opacity:1;fill-rule:nonzero;stroke:none" transform="translate(298.783 270.889)"/><path d="M0 0h-7.872v-19.44h-20.682v17.648c0 .988-.859 1.792-1.913 1.792h-12.217v-4.929h1.925c.489-.012 2.419-.209 2.419-2.488v-34.832a4.364 4.364 0 0 1 4.356-4.365h5.43v19.948h20.682v-15.583a4.367 4.367 0 0 1 4.359-4.365h5.43v44.822C1.917-.804 1.058 0 0 0" style="fill:#046eb8;fill-opacity:1;fill-rule:nonzero;stroke:none" transform="translate(286.336 304.087)"/><path d="M0 0v21.38c0 .983-.837 1.785-1.869 1.785h-17.05v-6.582h6.741c.631-.017 3.115-.267 3.115-3.198l.006-8.957c-2.128-1.25-5.704-1.401-6.981-1.411-3.804-.033-6.629 1.519-6.629 1.519-4.828 2.49-7.767 6.177-8.626 13.571-.904 7.737 1.194 13.522 5.623 17.088 2.024 1.633 4.84 2.435 8.35 2.534.805.024 1.622-.053 2.427-.155 4.004-.512 8.301-2.248 8.348-8.283v-1.504l.481-.064c1.838-.247 3.532.404 4.802 1.838 1.33 1.501 2.003 3.646 1.8 5.734-.249 2.507-1.922 4.706-4.708 6.194-2.625 1.396-6.79 2.199-11.43 2.199-2.926 0-5.787-.327-8.057-.92-3.691-.962-6.792-2.58-9.761-5.093-5.839-4.925-8.29-11.071-7.945-19.928.168-4.171 1.39-11.101 7.714-16.09 4.202-3.302 10.153-5.114 17.213-5.237C-9.772-3.652-2.896-1.683 0 0" style="fill:#046eb8;fill-opacity:1;fill-rule:nonzero;stroke:none" transform="translate(387.217 260.913)"/></g></svg>