<svg xmlns="http://www.w3.org/2000/svg" width="1040.6879mm" height="400mm" viewBox="0 0 1040.6879 400"><defs><radialGradient id="a" cx="0" cy="0" r="1" fx="0" fy="0" gradientTransform="matrix(42.08842 0 0 43.58423 -145.896 -107.305)" gradientUnits="userSpaceOnUse" spreadMethod="pad"><stop offset="0" style="stop-opacity:1;stop-color:#d7df23"/><stop offset="0.1" style="stop-opacity:1;stop-color:#d7df23"/><stop offset="0.9" style="stop-opacity:1;stop-color:#8cc63f"/><stop offset="1" style="stop-opacity:1;stop-color:#a6ce38"/></radialGradient><radialGradient id="b" cx="0" cy="0" r="1" fx="0" fy="0" gradientTransform="matrix(83.76603 0 0 86.74305 -60.063 -121.413)" gradientUnits="userSpaceOnUse" spreadMethod="pad"><stop offset="0" style="stop-opacity:1;stop-color:#d7df23"/><stop offset="0.1" style="stop-opacity:1;stop-color:#d7df23"/><stop offset="0.9" style="stop-opacity:1;stop-color:#8cc63f"/><stop offset="1" style="stop-opacity:1;stop-color:#a6ce38"/></radialGradient></defs><path d="M-161.602-91.977c0 15.105 9.826 26.04 24.106 26.04 8.806 0 16.137-4.717 21.035-12.13 8.017-12.112 11.516-13.91 11.516-13.91s-3.499-1.807-11.516-13.921c-4.898-7.395-12.23-12.115-21.035-12.115-14.28 0-24.106 10.922-24.106 26.036" style="fill:url(#a);stroke:none;stroke-width:1.98145" transform="matrix(2.42672 0 0 2.42672 561.003 349.58)"/><path d="M-81.928-119.82c-16.032 24.235-23.017 27.843-23.017 27.843s6.985 3.613 23.017 27.842C-72.116-49.334-57.468-39.9-39.834-39.9c28.56 0 48.228-21.84 48.228-52.077 0-30.234-19.668-52.078-48.228-52.078-17.633 0-32.282 9.436-42.094 24.235" style="fill:url(#b);stroke:none;stroke-width:1.98145" transform="matrix(2.42672 0 0 2.42672 561.003 349.58)"/><path d="M-231.178-48.588h17.66V7.198h36.065v13.579h-42.341c-6.283 0-11.384-5.28-11.384-11.788zM-122.602-48.588v27.053h-27.71v-27.053h-17.662v69.365h17.661V-12.24c2.087 2.617 5.247 4.28 8.778 4.28h18.933v28.737h17.656v-69.365Z" style="fill:#005da4;fill-opacity:1;fill-rule:nonzero;stroke:none;stroke-width:1.98145" transform="matrix(2.42672 0 0 2.42672 561.003 349.58)"/><path d="M-43.283-15.285v8.49h5.114v3.101h-5.114V9.57h-4.772v-24.855ZM94.364 4.616v3.097H80.753v11.962h-4.767V7.713H62.379V4.616ZM-61.379 1.684c-2.276 0-4.27-2.241-4.27-4.794 0-2.528 1.994-4.757 4.27-4.757 2.313 0 4.259 2.186 4.259 4.757 0 2.553-1.992 4.794-4.259 4.794m9.62-14.277h-7.014v-3.442h-4.765v3.442h-7.506v3.101h4.85l-.38.276c-2.102 1.54-3.301 3.758-3.301 6.097 0 4.208 3.965 7.902 8.496 7.902 4.526 0 8.493-3.694 8.493-7.902 0-2.348-1.185-4.574-3.265-6.097l-.38-.276h4.772zM146.57 17.472c-2.687 0-5.053-2.229-5.053-4.777 0-2.526 2.366-4.74 5.053-4.74 2.75 0 5.06 2.176 5.06 4.74 0 2.548-2.367 4.777-5.06 4.777m0-12.505c-5.354 0-9.578 3.6-9.578 7.716 0 4.145 4.224 7.781 9.578 7.781 5.372 0 9.588-3.636 9.588-7.78 0-4.182-4.131-7.717-9.588-7.717M58.567 19.676h-4.762v-34.965h4.762zM192.544-15.29v10.634h5.124v3.147h-5.124v21.183h-4.771V-15.29zM-60.641 8.017v8.223h17.98v3.109h-19.227c-2.5 0-3.513-.931-3.513-3.206V8.017ZM-16.593-1.6c.852-1.116 1.544-2.665 1.544-5.421v-4.587h-18.594v-3.1h19.84c2.503 0 3.535.932 3.535 3.2v4.017c0 2.958-.862 4.534-2.324 5.89H-6.6v3.102h-13.007v5.796h5.725c2.502 0 3.525.923 3.525 3.204v9.174h-4.773v-9.28h-18.64V7.298h9.41V1.5h-12.763V-1.6zM155.82.146h6.742v3.101H130.6v-3.1h11.694v-5.904h4.758V.146h4.828c.626-1.032 1.694-2.522 1.694-5.65v-6.14h-18.93v-3.108h20.177c2.49 0 3.517.935 3.517 3.208v5.577c0 2.329-.636 4.37-2.519 6.113M123.104 7.297c2.5 0 3.52.93 3.52 3.208v9.17h-4.768v-9.277h-19.488V7.297ZM.129 2.962v-13.69c0-2.275 1.02-3.206 3.517-3.206h20.05v3.105h-18.8v5.322h17.841v3.103H4.896v5.473h19.258v3.099h-9.985v6.477h13.619v3.1H-4.16v-3.1H9.4V6.168H3.647c-2.497 0-3.517-.94-3.517-3.206M126.624-15.29V4.35h-4.478v-9.567h-3.054V4.35h-4.48V1.074l-.255.294c-.587.662-3.416 1.658-6.36 1.658h-5.432l-1.17-.014c-2.497 0-3.52-.921-3.52-3.194v-11.165c0-2.277 1.023-3.206 3.52-3.206h9.712v3.142h-8.55v3.97h7.906v3.1h-7.906v4.262h6.838c2.776 0 4.52-.852 5.142-1.218l.075-.042V-15.29h4.48v7.432h3.054v-7.432zM40.05 1.264c-1.167 2.912-3.696 6.237-8.917 8.405a688.927 688.927 0 0 0-1.912-2.43c3.553-1.745 8.407-5.662 8.407-14.101v-4.066h-6.675v-3.091h18.194v3.09h-6.678v4.067c0 8.439 4.855 12.356 8.41 14.102-.207.257-1.808 2.292-1.913 2.429-5.209-2.168-7.747-5.493-8.916-8.405M78.365-4.945S76.275.035 65.99 1.751l-1.502-2.7c5.387-1.045 11.478-4.455 11.478-10.214v-.368H65.945v-3.143h24.847v3.143H80.774v.368c0 5.759 6.095 9.169 11.473 10.215L90.75 1.75C80.465.035 78.365-4.945 78.365-4.945M177.05-6.642c0 8.441 4.459 12.04 8.404 13.746-.206.263-1.8 2.294-1.916 2.437-4.362-1.24-8.138-5.05-8.913-7.845-.767 2.794-4.538 6.604-8.91 7.845a956.16 956.16 0 0 0-1.913-2.437c3.947-1.706 8.408-5.305 8.408-13.746v-7.84h4.84z" style="fill:#6d6f71;fill-opacity:1;fill-rule:nonzero;stroke:none;stroke-width:1.98145" transform="matrix(2.42672 0 0 2.42672 561.003 349.58)"/></svg>