<svg xmlns="http://www.w3.org/2000/svg" width="1375.4271mm" height="200mm" viewBox="0 0 1375.4271 200"><defs><linearGradient id="a" x1="0" x2="1" y1="0" y2="0" gradientTransform="scale(-49.00019) rotate(33 -4.173 9.148)" gradientUnits="userSpaceOnUse" spreadMethod="pad"><stop offset="0" style="stop-opacity:1;stop-color:#ffc215"/><stop offset="0.0112305" style="stop-opacity:1;stop-color:#ffc215"/><stop offset="0.42997262" style="stop-opacity:1;stop-color:#ffc215"/><stop offset="1" style="stop-opacity:1;stop-color:#d51f26"/></linearGradient><linearGradient id="b" x1="0" x2="1" y1="0" y2="0" gradientTransform="rotate(140 -87.91 -149.934) scale(36.36701)" gradientUnits="userSpaceOnUse" spreadMethod="pad"><stop offset="0" style="stop-opacity:1;stop-color:#e4e41b"/><stop offset="1" style="stop-opacity:1;stop-color:#0da84f"/></linearGradient></defs><path d="M-240.548-207.63c-.019.003-.033.003-.058.003-4.517.17-9.422 1.792-12.832 4.912 2.624-2.267 7.523-2.286 10.074.322 0-.003-.003-.008-.003-.008l12.388 12.585c3.488 3.3 8.627 4.985 13.306 5.09h8.345l-17.833-18.115c-3.446-3.067-8.113-4.788-12.835-4.788zm-13.254 5.257c.118-.117.24-.23.364-.343-.127.11-.249.223-.364.343" style="fill:url(#a);stroke:none;stroke-width:1.58185" transform="matrix(2 0 0 2 642.065 415.282)"/><path d="M-257.236-207.63c-4.684 0-9.889 1.882-13.345 5.257l-.008-.009-17.384 17.655h8.53c4.539-.102 9.506-1.69 12.984-4.793l12.657-12.852c3.42-3.344 8.516-5.08 13.195-5.255.428-.014-.022-.014-.022-.014z" style="fill:url(#b);stroke:none;stroke-width:1.58185" transform="matrix(2 0 0 2 642.065 415.282)"/><path d="M-277.062-179.933c-3.472 0-5.269 1.945-5.269 5.372v20.258h-.008a3.004 3.004 0 0 1-3.023 3.04h-17.101c-1.65 0-3.036-1.288-3.036-3.04h-.003v-25.63h-10.057c-.002 0-.013.003-.014.006-3.528 0-5.46 1.72-5.46 5.13v63.898h15.531v-26.942h.003c0-1.754 1.386-3.038 3.036-3.038h17.101a3.002 3.002 0 0 1 3.023 3.038h.008v26.942h15.53v-69.035zM-251.269-179.933c-3.589 0-5.514 1.931-5.514 5.514v63.52h15.537v-26.941h.006c0-1.739 1.363-3.017 2.996-3.034h20.066c3.587 0 5.51-1.935 5.51-5.516v-4.917h-25.55c-1.594 0-3.028-1.336-3.028-2.996v-12.158h.006c0-1.75 1.382-3.037 3.032-3.037h23.364c3.59 0 5.514-1.931 5.514-5.512v-4.923zM-35.98-141.872v7.91h24.033v23.826h10.206v-23.826H22.29v-7.91zM-31.81-147.532c9.274-1.808 20.513-8.702 24.963-15.22 5.23 7.616 16.678 13.703 24.966 15.22l.282.049 3.977-7.612-.43-.157c-9.387-3.32-19.601-7.794-22.741-18.416H19.97v-7.909h-53.63v7.91h20.763c-3.153 10.682-13.356 15.123-22.743 18.415l-.43.157 3.982 7.616zM199.795-176.312c8.23 0 16.569 2.59 16.569 7.542 0 4.87-8.34 7.416-16.569 7.416-8.235 0-16.571-2.546-16.571-7.416 0-4.953 8.336-7.542 16.571-7.542m-18.888 19.328c4.998 2.47 11.71 3.835 18.888 3.835 13.236 0 27.474-4.866 27.474-15.54 0-10.842-14.243-15.783-27.474-15.783-7.186 0-13.89 1.383-18.893 3.898-5.717 2.866-8.735 6.978-8.735 11.885 0 4.83 3.018 8.878 8.74 11.705m35.457 34.375c0 2.496-2.732 4.023-5.021 4.863-3.023 1.106-7.104 1.715-11.494 1.715-8.26 0-16.625-2.26-16.625-6.578 0-2.513 2.706-4.035 4.98-4.873 2.99-1.104 7.047-1.713 11.419-1.713 8.317 0 16.74 2.26 16.74 6.586m-24.485-19.902h15.754v5.41a55.678 55.678 0 0 0-15.754 0zm26.039 0h12.595v-7.911h-61.515v7.91h12.596v6.899h3.882c-8.151 2.684-13.308 7.64-13.308 13.083 0 10.229 14.303 14.889 27.592 14.889 7.169 0 13.85-1.304 18.811-3.66 5.685-2.698 8.699-6.583 8.699-11.229 0-5.625-4.747-10.202-13.359-13.083h4.007zM-164.018-158.182c0-7.807 4.734-11.361 9.13-11.361 4.345 0 9.02 3.554 9.02 11.36 0 3.607-.984 6.622-2.845 8.725-1.634 1.84-3.832 2.855-6.192 2.855-4.39 0-9.113-3.626-9.113-11.58m2.3-9.074c-2.016 2.216-3.084 5.351-3.084 9.075 0 8.5 5.132 12.371 9.897 12.371 2.586 0 4.992-1.105 6.775-3.116 1.991-2.244 3.045-5.45 3.045-9.255 0-8.35-5.083-12.157-9.803-12.157-2.597 0-5.026 1.098-6.83 3.082" style="fill:#0054a3;fill-opacity:1;fill-rule:nonzero;stroke:none;stroke-width:1.58185" transform="matrix(2 0 0 2 642.065 415.282)"/><path d="M-118.276-164.038V-183.234h-6.49c-2.402.005-3.716 1.272-3.716 3.572v48.762h10.206v-25.316h7.495v-7.822zm-40.951 30.03h-10.29l.084 12.227c0 6.375 4.853 11.563 10.821 11.563h41.108v-7.91h-41.723zm13.75-24.174c0 16.05-18.932 15.885-18.932 0 0-15.553 18.931-15.8 18.931 0m-28.75 0c0 13.273 10.017 19.32 19.323 19.32 9.306 0 19.325-6.047 19.325-19.32 0-6.1-2.681-9.942-7.028-13.916h7.84v-7.91h-14.645v-4.794h-11.059v4.795h-14.572v7.91h7.81c-4.708 4.172-6.994 8.61-6.994 13.915M344.785-124.517c-10.85-6.99-16.35-17.06-16.35-29.941v-27.12h-10.211v27.035c0 15.163-6.546 22.973-16.374 30.037l-.278.2 4.05 7.763.34-.17c5.63-2.823 13.727-9.832 17.4-16.44 5.14 7.65 11.612 13.791 17.424 16.447l.335.154 3.966-7.77zM84.863-183.234c-2.398.005-3.72 1.272-3.72 3.572v10.083h-4.78v-13.655h-5.797c-2.401.005-3.71 1.272-3.71 3.572v26.575c-5.068 2.246-9.824 2.449-15.065 2.449h-7.72v-8.14h15.758v-7.91H44.07v-6.98h17.383v-7.91H33.86v27.199c-.04 3.129 1.17 6.188 3.31 8.396 2.039 2.096 4.7 3.254 7.51 3.254h6.574c4.937 0 10.588-.223 15.602-2.327v4.31h9.509v-20.926h4.78v20.927h9.515v-42.489zM36.949-137.152v7.908h43.428v19.109H90.62v-15.452c0-6.38-4.874-11.565-10.861-11.565zM-45.573-145.456v-7.913h-5.97c1.585-4.506 1.932-7.604 1.932-11.101l-.21-2.506h-9.903v3.496c0 4.03-.098 5.912-1.887 10.111h-42.232v7.913h24.03v8.714h-20.94v7.911h41.839v18.696h10.247v-15.04c0-6.378-4.872-11.567-10.863-11.567h-10.078v-8.714z" style="fill:#0054a3;fill-opacity:1;fill-rule:nonzero;stroke:none;stroke-width:1.58185" transform="matrix(2 0 0 2 642.065 415.282)"/><path d="M-100.753-181.577v7.91h41.03v9.198h10.113v-5.541c0-6.377-4.74-11.567-10.732-11.567zM147.36-117.647h-32.3v-15.139h32.3zm-42.192-22.65.08 18.516v-.003c0 6.424 4.852 11.649 10.817 11.649h41.191v-30.163z" style="fill:#0054a3;fill-opacity:1;fill-rule:nonzero;stroke:none;stroke-width:1.58185" transform="matrix(2 0 0 2 642.065 415.282)"/><path d="M146.968-118.044h-31.517v-14.343h31.517zm-32.301.794h33.08v-15.934h-33.08zM154.39-153.781c1.36-3.607 1.866-7.21 2.025-10.689h.052v-1.547c0-.392.013-.786.013-1.176 0-.448-.005-.894-.013-1.339v-1.479c0-6.376-4.875-11.566-10.861-11.566H105.19v7.909h41.023v4.742h-.015v5.864c0 3.327-.695 6.282-2.123 9.281h-41.146v7.91h56.72v-7.91zM291.453-152.956c1.262-3.838 1.694-7.52 1.835-11.513h.09v-5.541c0-6.377-4.87-11.567-10.864-11.567h-40.411v7.908h41.028v11.432c0 4.831-.74 8.185-2.031 9.28h-15.346v-12.077h-10.209v12.078h-15.687v7.914h56.725v-7.914zM359.185-161.723v-21.51h-6.498c-2.395.005-3.71 1.271-3.71 3.571v69.445h10.208v-43.597h7.496v-7.91zM278.098-117.871c-2.735 1.354-6.428 2.102-10.4 2.102-7.218 0-14.982-2.555-14.982-8.166 0-5.36 7.579-8.163 15.067-8.163 7.175 0 14.896 2.55 14.896 8.163 0 3.136-2.488 5.032-4.58 6.064m-10.213-22.19c-6.81 0-13.18 1.422-17.933 3.997-5.428 2.942-8.302 7.134-8.302 12.13 0 11.034 13.523 16.065 26.082 16.065 6.784 0 13.1-1.41 17.803-3.96 5.37-2.921 8.205-7.107 8.205-12.106 0-11.079-13.404-16.126-25.855-16.126" style="fill:#0054a3;fill-opacity:1;fill-rule:nonzero;stroke:none;stroke-width:1.58185" transform="matrix(2 0 0 2 642.065 415.282)"/></svg>